<?xml version="1.0" encoding="UTF-8" standalone="no"?>
<!-- Created with Inkscape (http://www.inkscape.org/) -->

<svg
   version="1.1"
   id="svg1074"
   xml:space="preserve"
   width="32"
   height="32"
   viewBox="0 0 32 32"
   sodipodi:docname="box.svg"
   inkscape:version="1.3.2 (091e20e, 2023-11-25, custom)"
   xmlns:inkscape="http://www.inkscape.org/namespaces/inkscape"
   xmlns:sodipodi="http://sodipodi.sourceforge.net/DTD/sodipodi-0.dtd"
   xmlns="http://www.w3.org/2000/svg"
   xmlns:svg="http://www.w3.org/2000/svg"><sodipodi:namedview
     id="namedview1"
     pagecolor="#ffffff"
     bordercolor="#000000"
     borderopacity="0.25"
     inkscape:showpageshadow="2"
     inkscape:pageopacity="0.0"
     inkscape:pagecheckerboard="0"
     inkscape:deskcolor="#d1d1d1"
     showgrid="false"
     inkscape:zoom="17.810252"
     inkscape:cx="10.050391"
     inkscape:cy="19.342792"
     inkscape:window-width="1920"
     inkscape:window-height="1017"
     inkscape:window-x="-8"
     inkscape:window-y="-8"
     inkscape:window-maximized="1"
     inkscape:current-layer="svg1074" /><defs
     id="defs1078"><clipPath
       clipPathUnits="userSpaceOnUse"
       id="clipPath1088"><path
         d="M 0,24 H 24 V 0 H 0 Z"
         id="path1086" /></clipPath></defs><g
     id="g1080"
     transform="matrix(1.3333333,0,0,-1.3333333,0,32)"><g
       id="g1082"><g
         id="g1084"
         clip-path="url(#clipPath1088)"
         style="stroke-width:2.13448824;stroke-dasharray:none"><g
           id="g1090"
           transform="translate(23,1)"
           style="stroke-width:2.13448824;stroke-dasharray:none"><path
             d="m 0,0 h -22 v 20 c 0,1.104 0.896,2 2,2 h 18 c 1.104,0 2,-0.896 2,-2 z"
             style="fill:none;stroke:#000000;stroke-width:2.13448824;stroke-linecap:butt;stroke-linejoin:miter;stroke-miterlimit:10;stroke-dasharray:none;stroke-opacity:1"
             id="path1092" /></g><g
           id="g1094"
           transform="translate(10,23)"
           style="stroke-width:2.13448824;stroke-dasharray:none"><path
             d="M 0,0 V -8 H 4 V 0"
             style="fill:none;stroke:#000000;stroke-width:2.13448824;stroke-linecap:butt;stroke-linejoin:miter;stroke-miterlimit:10;stroke-dasharray:none;stroke-opacity:1"
             id="path1096" /></g><g
           id="g1098"
           transform="translate(20,5)"
           style="stroke-width:2.13448824;stroke-dasharray:none"><path
             d="M 0,0 H -5"
             style="fill:none;stroke:#000000;stroke-width:2.13448824;stroke-linecap:butt;stroke-linejoin:miter;stroke-miterlimit:10;stroke-dasharray:none;stroke-opacity:1"
             id="path1100" /></g><g
           id="g1102"
           transform="translate(10,18)"
           style="stroke-width:2.13448824;stroke-dasharray:none"><path
             d="M 0,0 H -9"
             style="fill:none;stroke:#000000;stroke-width:2.13448824;stroke-linecap:butt;stroke-linejoin:miter;stroke-miterlimit:10;stroke-dasharray:none;stroke-opacity:1"
             id="path1104" /></g><g
           id="g1106"
           transform="translate(23,18)"
           style="stroke-width:2.13448824;stroke-dasharray:none"><path
             d="M 0,0 H -9"
             style="fill:none;stroke:#000000;stroke-width:2.13448824;stroke-linecap:butt;stroke-linejoin:miter;stroke-miterlimit:10;stroke-dasharray:none;stroke-opacity:1"
             id="path1108" /></g></g></g></g><path
     style="opacity:0.99;fill:#d38d5f;stroke:#000000;stroke-width:0.275874;stroke-miterlimit:14.4;paint-order:stroke markers fill"
     d="M 2.695077,19.314718 V 9.3485482 h 4.6321635 4.6321635 v 1.9932338 1.993234 h 4.042615 4.042616 V 11.341782 9.3485482 h 4.632163 4.632164 v 9.9661698 9.96617 H 16.002019 2.695077 Z m 23.974955,6.007776 V 23.946882 H 23.32926 19.988487 v 1.375612 1.375612 h 3.340773 3.340772 z"
     id="path11" /><path
     style="opacity:0.99;fill:#d38d5f;stroke:#000000;stroke-width:0.275874;stroke-miterlimit:14.4;paint-order:stroke markers fill"
     d="m 14.710628,6.6534712 v -3.986468 h 1.291391 1.291392 v 3.986468 3.9864678 h -1.291392 -1.291391 z"
     id="path12" /><path
     style="opacity:0.99;fill:#c87137;stroke:#000000;stroke-width:0.275874;stroke-miterlimit:14.4;paint-order:stroke markers fill"
     d="M 2.695077,19.314718 V 9.3485482 h 4.6321635 4.6321635 v 1.9932338 1.993234 h 4.042615 4.042616 V 11.341782 9.3485482 h 4.632163 4.632164 v 9.9661698 9.96617 H 16.002019 2.695077 Z m 23.974955,6.007776 V 23.946882 H 23.32926 19.988487 v 1.375612 1.375612 h 3.340773 3.340772 z"
     id="path13" /><path
     style="opacity:0.99;fill:#c87137;stroke:#000000;stroke-width:0.275874;stroke-miterlimit:14.4;paint-order:stroke markers fill"
     d="m 14.710628,6.6534712 v -3.986468 h 1.291391 1.291392 v 3.986468 3.9864678 h -1.291392 -1.291391 z"
     id="path14" /><path
     style="opacity:0.99;fill:#deaa87;stroke:#000000;stroke-width:0.275874;stroke-miterlimit:14.4;paint-order:stroke markers fill"
     d="M 2.695077,19.314718 V 9.3485482 h 4.6321635 4.6321635 v 1.9932338 1.993234 h 4.042615 4.042616 V 11.341782 9.3485482 h 4.632163 4.632164 v 9.9661698 9.96617 H 16.002019 2.695077 Z m 23.974955,6.007776 V 23.946882 H 23.32926 19.988487 v 1.375612 1.375612 h 3.340773 3.340772 z"
     id="path15" /><path
     style="opacity:0.99;fill:#deaa87;stroke:#000000;stroke-width:0.275874;stroke-miterlimit:14.4;paint-order:stroke markers fill"
     d="M 20.044635,4.6581697 V 2.6628682 l 4.1128,0.016104 c 3.822188,0.014966 4.128669,0.023258 4.337389,0.1173409 0.284035,0.1280323 0.510034,0.3417281 0.664874,0.6286801 0.114085,0.2114229 0.122209,0.3126437 0.138576,1.7265337 l 0.01739,1.5019439 h -4.635513 -4.635512 z"
     id="path16" /><path
     style="opacity:0.99;fill:#deaa87;stroke:#000000;stroke-width:0.275874;stroke-miterlimit:14.4;paint-order:stroke markers fill"
     d="M 2.6956255,5.2076748 C 2.6961576,3.8049007 2.7001233,3.7535244 2.8288926,3.4811411 2.9848629,3.1512203 3.1981338,2.936537 3.5092148,2.7963135 3.717935,2.7022304 4.0244159,2.693939 7.8466043,2.6789726 L 11.959404,2.6628682 V 4.6581697 6.6534712 H 7.3272405 2.695077 Z"
     id="path17" /></svg>
